<?xml version="1.0" standalone="no"?>
<!DOCTYPE svg PUBLIC "-//W3C//DTD SVG 20010904//EN"
 "http://www.w3.org/TR/2001/REC-SVG-20010904/DTD/svg10.dtd">
<svg version="1.0" xmlns="http://www.w3.org/2000/svg"
 width="135.000000pt" height="135.000000pt" viewBox="0 0 135.000000 135.000000"
 preserveAspectRatio="xMidYMid meet">
<metadata>
Created by potrace 1.10, written by Peter Selinger 2001-2011
</metadata>
<g transform="translate(0.000000,135.000000) scale(0.100000,-0.100000)"
fill="#000000" stroke="none">
<path d="M412 1064 c-197 -53 -331 -261 -293 -455 19 -95 56 -162 127 -229 84
-78 149 -103 269 -104 123 0 169 20 351 154 173 128 233 160 312 169 l57 6 3
104 c3 108 -7 143 -34 120 -10 -8 -14 -37 -14 -99 l0 -88 -37 -4 c-21 -3 -45
-8 -53 -12 -12 -5 -18 5 -26 50 l-10 56 48 24 c45 23 60 45 38 59 -18 11 -114
-47 -171 -104 l-57 -57 -5 62 c-19 241 -268 412 -505 348z m235 -56 c90 -33
155 -96 200 -195 22 -47 27 -72 27 -138 0 -69 -4 -90 -31 -147 -61 -131 -166
-200 -313 -206 -116 -5 -184 20 -260 97 -85 85 -105 134 -105 256 0 85 4 107
24 148 87 177 274 253 458 185z m392 -385 c1 -27 -67 -72 -80 -51 -16 25 -9
48 29 89 l37 42 6 -29 c4 -16 7 -39 8 -51z m-128 -106 c-28 -28 -36 -16 -16
24 15 29 18 30 27 15 8 -14 5 -23 -11 -39z"/>
<path d="M448 971 c-70 -62 -24 -171 73 -171 29 0 47 7 64 24 98 98 -34 239
-137 147z m98 -19 c6 -4 17 -18 24 -31 10 -20 9 -27 -8 -50 -24 -32 -46 -37
-77 -17 -29 19 -33 60 -8 88 16 18 49 23 69 10z"/>
<path d="M264 840 c-34 -13 -64 -59 -64 -97 0 -44 54 -103 94 -103 107 0 151
137 62 191 -33 20 -58 23 -92 9z m80 -56 c21 -20 20 -58 0 -79 -25 -24 -75
-16 -93 16 -13 24 -13 29 2 53 20 30 66 35 91 10z"/>
<path d="M694 840 c-34 -13 -64 -59 -64 -97 0 -26 8 -43 34 -69 38 -38 70 -43
116 -19 37 19 50 43 50 92 -1 74 -69 120 -136 93z m78 -57 c39 -35 7 -98 -48
-91 -18 2 -34 13 -43 29 -13 24 -13 29 2 53 20 30 61 35 89 9z"/>
<path d="M472 717 c-28 -30 -28 -58 1 -85 29 -27 61 -28 87 -2 39 39 11 110
-43 110 -13 0 -33 -10 -45 -23z m65 -33 c9 -23 -13 -40 -32 -24 -12 10 -13 16
-4 26 15 18 28 18 36 -2z"/>
<path d="M343 585 c-35 -15 -63 -60 -63 -101 0 -16 12 -38 34 -60 43 -43 90
-46 135 -8 59 50 46 140 -24 170 -41 17 -42 17 -82 -1z m81 -51 c25 -25 20
-71 -10 -91 -24 -15 -29 -15 -53 -2 -32 18 -40 68 -16 93 21 20 59 21 79 0z"/>
<path d="M620 593 c-8 -3 -27 -17 -42 -31 -60 -56 -18 -172 62 -172 96 0 145
101 83 170 -28 30 -74 45 -103 33z m76 -68 c20 -31 15 -53 -17 -77 -23 -17
-30 -18 -50 -8 -29 16 -39 29 -39 54 0 53 76 76 106 31z"/>
</g>
</svg>
