<?xml version="1.0" standalone="no"?>
<!DOCTYPE svg PUBLIC "-//W3C//DTD SVG 20010904//EN"
 "http://www.w3.org/TR/2001/REC-SVG-20010904/DTD/svg10.dtd">
<svg version="1.0" xmlns="http://www.w3.org/2000/svg"
 width="300.000000pt" height="273.000000pt" viewBox="0 0 300.000000 273.000000"
 preserveAspectRatio="xMidYMid meet">
<metadata>
Created by potrace 1.10, written by Peter Selinger 2001-2011
</metadata>
<g transform="translate(0.000000,273.000000) scale(0.100000,-0.100000)"
fill="#000000" stroke="none">
<path d="M1215 2507 c-46 -22 -105 -76 -105 -96 0 -5 -21 2 -47 15 -119 61
-280 -5 -314 -129 -9 -33 -11 -35 -64 -39 -103 -9 -174 -84 -175 -187 0 -48
33 -129 56 -138 9 -3 14 -21 14 -48 0 -40 -3 -44 -29 -50 -52 -11 -75 -47 -79
-126 -5 -79 5 -99 49 -99 23 0 29 -4 29 -22 0 -12 16 -247 36 -522 30 -430 38
-503 52 -514 13 -10 66 -12 230 -10 l212 3 0 -108 c0 -122 12 -157 60 -182 25
-13 81 -15 377 -13 l348 3 25 47 c14 27 27 48 30 48 3 0 16 -21 30 -48 l25
-47 348 -3 c296 -2 352 0 377 13 57 29 60 48 60 335 l0 260 -34 38 -34 37
-301 0 -300 0 4 35 c3 19 12 143 20 275 25 405 22 382 54 377 41 -6 61 20 61
80 0 60 -22 110 -55 128 -31 17 -33 55 -5 107 24 44 25 81 6 127 -14 33 -72
86 -94 86 -7 0 -12 11 -12 24 0 86 -97 176 -190 176 -44 0 -113 -31 -133 -60
l-15 -22 -42 31 c-25 18 -67 36 -101 43 -42 9 -59 17 -59 28 0 9 -13 37 -29
62 -61 95 -187 133 -286 85z m173 -77 c40 -25 72 -75 72 -116 0 -42 16 -54 72
-54 65 0 110 -20 156 -71 31 -33 43 -40 60 -35 12 4 22 14 22 23 0 8 15 30 34
49 26 26 42 34 70 34 78 0 134 -58 122 -128 -6 -42 7 -62 42 -62 35 0 72 -37
72 -72 0 -16 -10 -42 -21 -58 -17 -22 -20 -37 -16 -64 l6 -36 -710 0 -709 0 0
60 c0 53 -3 61 -26 76 -60 40 -70 115 -23 168 37 43 81 54 131 33 46 -19 68
-7 68 39 0 103 93 180 190 159 18 -4 50 -23 71 -42 49 -44 79 -42 92 7 24 94
141 141 225 90z m750 -672 c7 -7 12 -25 12 -40 l0 -28 -805 0 -805 0 0 24 c0
59 -40 56 809 56 591 0 780 -3 789 -12z m-1288 -640 l0 -498 -78 0 -77 0 -36
493 c-20 270 -35 494 -33 497 1 3 52 5 113 5 l111 0 0 -497z m308 151 l2 -342
-37 -32 -38 -33 -3 -121 -4 -121 -76 0 -77 0 2 497 c2 274 3 498 3 498 0 0 51
-1 112 -2 l113 -2 3 -342z m302 1 l0 -345 -115 0 -115 0 0 345 0 345 115 0
115 0 0 -345z m310 0 l0 -345 -115 0 -115 0 0 345 0 345 115 0 115 0 0 -345z
m293 328 c-1 -7 -9 -130 -18 -273 -22 -382 -25 -407 -41 -401 -19 7 -49 -24
-65 -68 -7 -20 -15 -36 -19 -36 -3 0 -13 20 -24 45 -10 25 -27 50 -37 56 -18
9 -19 26 -19 348 0 186 2 340 4 342 2 2 53 3 113 2 82 -1 108 -5 106 -15z
m-203 -821 c30 -61 39 -72 60 -72 21 0 31 12 63 73 l38 72 324 0 c310 0 325
-1 335 -19 6 -12 10 -111 10 -252 0 -202 -2 -235 -17 -251 -15 -17 -39 -18
-333 -18 l-317 0 -39 78 c-33 65 -43 77 -64 77 -20 0 -30 -12 -62 -77 l-38
-78 -318 0 c-234 0 -321 3 -330 12 -13 13 -18 509 -5 521 3 4 153 7 332 6
l326 0 35 -72z m80 13 c-1 -15 -19 -32 -29 -26 -18 12 -12 32 9 32 11 0 20 -3
20 -6z"/>
<path d="M971 2206 c-18 -22 3 -56 35 -56 14 0 36 -11 49 -25 47 -46 23 -118
-45 -132 -41 -8 -54 -26 -40 -54 10 -18 18 -21 53 -16 110 15 167 135 109 229
-36 58 -132 89 -161 54z"/>
<path d="M1320 2135 c-17 -20 -7 -77 21 -116 57 -80 191 -77 244 5 27 41 36
94 18 111 -28 28 -63 10 -63 -32 0 -31 -42 -73 -73 -73 -34 0 -77 37 -77 65 0
26 -24 55 -44 55 -8 0 -19 -7 -26 -15z"/>
<path d="M1242 758 c-17 -17 -17 -339 0 -356 17 -17 499 -17 516 0 17 17 17
339 0 356 -17 17 -499 17 -516 0z m448 -173 l0 -115 -190 0 -190 0 0 115 0
115 190 0 190 0 0 -115z"/>
<path d="M2082 758 c-8 -8 -12 -62 -12 -178 0 -116 4 -170 12 -178 17 -17 499
-17 516 0 17 17 17 339 0 356 -17 17 -499 17 -516 0z m448 -173 l0 -115 -190
0 -190 0 0 115 0 115 190 0 190 0 0 -115z"/>
</g>
</svg>
