<?xml version="1.0" standalone="no"?><svg xmlns="http://www.w3.org/2000/svg" viewBox="0 0 1440 320"><path fill="#D3C0B9" fill-opacity="1" d="M0,160L18.5,160C36.9,160,74,160,111,149.3C147.7,139,185,117,222,122.7C258.5,128,295,160,332,154.7C369.2,149,406,107,443,117.3C480,128,517,192,554,208C590.8,224,628,192,665,181.3C701.5,171,738,181,775,170.7C812.3,160,849,128,886,112C923.1,96,960,96,997,133.3C1033.8,171,1071,245,1108,245.3C1144.6,245,1182,171,1218,144C1255.4,117,1292,139,1329,165.3C1366.2,192,1403,224,1422,240L1440,256L1440,0L1421.5,0C1403.1,0,1366,0,1329,0C1292.3,0,1255,0,1218,0C1181.5,0,1145,0,1108,0C1070.8,0,1034,0,997,0C960,0,923,0,886,0C849.2,0,812,0,775,0C738.5,0,702,0,665,0C627.7,0,591,0,554,0C516.9,0,480,0,443,0C406.2,0,369,0,332,0C295.4,0,258,0,222,0C184.6,0,148,0,111,0C73.8,0,37,0,18,0L0,0Z"></path></svg>